<svg width="512" height="512" viewBox="0 0 512 512" fill="none" xmlns="http://www.w3.org/2000/svg">
  <defs>
    <linearGradient id="bg" x1="96" y1="64" x2="416" y2="448" gradientUnits="userSpaceOnUse">
      <stop stop-color="#3B82F6"/>
      <stop offset="0.48" stop-color="#14B8A6"/>
      <stop offset="1" stop-color="#111827"/>
    </linearGradient>
    <linearGradient id="ring" x1="128" y1="120" x2="384" y2="392" gradientUnits="userSpaceOnUse">
      <stop stop-color="white" stop-opacity="0.95"/>
      <stop offset="1" stop-color="white" stop-opacity="0.45"/>
    </linearGradient>
    <filter id="shadow" x="26" y="30" width="460" height="460" filterUnits="userSpaceOnUse" color-interpolation-filters="sRGB">
      <feDropShadow dx="0" dy="18" stdDeviation="24" flood-color="#020617" flood-opacity="0.28"/>
    </filter>
  </defs>

  <rect x="56" y="56" width="400" height="400" rx="96" fill="url(#bg)" filter="url(#shadow)"/>
  <path d="M152 326C178 270 209 248 246 260C278 270 292 246 309 210C320 186 334 171 360 168" stroke="white" stroke-width="28" stroke-linecap="round" stroke-linejoin="round"/>
  <path d="M145 344C181 358 219 354 255 332C287 312 314 308 364 326" stroke="white" stroke-opacity="0.36" stroke-width="18" stroke-linecap="round"/>
  <circle cx="256" cy="256" r="144" stroke="url(#ring)" stroke-width="22" stroke-linecap="round" stroke-dasharray="470 116"/>
  <circle cx="362" cy="168" r="22" fill="#F59E0B"/>
  <path d="M152 376H360" stroke="white" stroke-opacity="0.42" stroke-width="18" stroke-linecap="round"/>
</svg>
